{
  "accessors": [
    {
      "bufferView": 2,
      "componentType": 5126,
      "count": 39847,
      "max": [
        0.5132566690444946,
        2.665480613708496,
        0.8823042511940002
      ],
      "min": [
        -0.7005702257156372,
        1.101860761642456,
        -0.5104416608810425
      ],
      "type": "VEC3"
    },
    {
      "bufferView": 2,
      "byteOffset": 478164,
      "componentType": 5126,
      "count": 39847,
      "max": [
        1.0,
        1.0,
        1.0
      ],
      "min": [
        -1.0,
        -0.999984622001648,
        -1.0
      ],
      "type": "VEC3"
    },
    {
      "bufferView": 3,
      "componentType": 5126,
      "count": 39847,
      "max": [
        0.9999973177909851,
        0.9999271035194397,
        0.9999980330467224,
        1.0
      ],
      "min": [
        -0.9999886751174927,
        -0.9999942183494568,
        -1.0,
        -1.0
      ],
      "type": "VEC4"
    },
    {
      "bufferView": 1,
      "componentType": 5126,
      "count": 39847,
      "max": [
        0.9913756847381592,
        0.9999609589576721
      ],
      "min": [
        1.2805536243831739e-05,
        0.0015481114387512207
      ],
      "type": "VEC2"
    },
    {
      "bufferView": 1,
      "byteOffset": 318776,
      "componentType": 5126,
      "count": 39847,
      "max": [
        0.9913756847381592,
        0.9999609589576721
      ],
      "min": [
        1.2805536243831739e-05,
        0.0015481114387512207
      ],
      "type": "VEC2"
    },
    {
      "bufferView": 1,
      "byteOffset": 637552,
      "componentType": 5126,
      "count": 39847,
      "max": [
        0.9913756847381592,
        0.9999609589576721
      ],
      "min": [
        1.2805536243831739e-05,
        0.0015481114387512207
      ],
      "type": "VEC2"
    },
    {
      "bufferView": 1,
      "byteOffset": 956328,
      "componentType": 5126,
      "count": 39847,
      "max": [
        0.9913756847381592,
        0.9999609589576721
      ],
      "min": [
        1.2805536243831739e-05,
        0.0015481114387512207
      ],
      "type": "VEC2"
    },
    {
      "bufferView": 1,
      "byteOffset": 1275104,
      "componentType": 5126,
      "count": 39847,
      "max": [
        0.9913756847381592,
        0.9999609589576721
      ],
      "min": [
        1.2805536243831739e-05,
        0.0015481114387512207
      ],
      "type": "VEC2"
    },
    {
      "bufferView": 1,
      "byteOffset": 1593880,
      "componentType": 5126,
      "count": 39847,
      "max": [
        0.9913756847381592,
        0.9999609589576721
      ],
      "min": [
        1.2805536243831739e-05,
        0.0015481114387512207
      ],
      "type": "VEC2"
    },
    {
      "bufferView": 1,
      "byteOffset": 1912656,
      "componentType": 5126,
      "count": 39847,
      "max": [
        0.9913756847381592,
        0.9999609589576721
      ],
      "min": [
        1.2805536243831739e-05,
        0.0015481114387512207
      ],
      "type": "VEC2"
    },
    {
      "bufferView": 1,
      "byteOffset": 2231432,
      "componentType": 5126,
      "count": 39847,
      "max": [
        0.9913756847381592,
        0.9999609589576721
      ],
      "min": [
        1.2805536243831739e-05,
        0.0015481114387512207
      ],
      "type": "VEC2"
    },
    {
      "bufferView": 1,
      "byteOffset": 2550208,
      "componentType": 5126,
      "count": 39847,
      "max": [
        0.9913756847381592,
        0.9999609589576721
      ],
      "min": [
        1.2805536243831739e-05,
        0.0015481114387512207
      ],
      "type": "VEC2"
    },
    {
      "bufferView": 0,
      "componentType": 5125,
      "count": 180891,
      "type": "SCALAR"
    }
  ],
  "asset": {
    "extras": {
      "author": "urbanmasque (https://sketchfab.com/urbanmasque)",
      "license": "CC-BY-4.0 (http://creativecommons.org/licenses/by/4.0/)",
      "source": "https://sketchfab.com/3d-models/one-piece-763978f90e0d4f4796f342d52813f31e",
      "title": "One Piece"
    },
    "generator": "Sketchfab-16.25.0",
    "version": "2.0"
  },
  "bufferViews": [
    {
      "buffer": 0,
      "byteLength": 723564,
      "name": "floatBufferViews",
      "target": 34963
    },
    {
      "buffer": 0,
      "byteLength": 2868984,
      "byteOffset": 723564,
      "byteStride": 8,
      "name": "floatBufferViews",
      "target": 34962
    },
    {
      "buffer": 0,
      "byteLength": 956328,
      "byteOffset": 3592548,
      "byteStride": 12,
      "name": "floatBufferViews",
      "target": 34962
    },
    {
      "buffer": 0,
      "byteLength": 637552,
      "byteOffset": 4548876,
      "byteStride": 16,
      "name": "floatBufferViews",
      "target": 34962
    }
  ],
  "buffers": [
    {
      "byteLength": 5186428,
      "uri": "scene.bin"
    }
  ],
  "images": [
    {
      "uri": "textures/material_baseColor.jpeg"
    },
    {
      "uri": "textures/material_metallicRoughness.png"
    },
    {
      "uri": "textures/material_normal.png"
    }
  ],
  "materials": [
    {
      "doubleSided": true,
      "name": "material",
      "normalTexture": {
        "index": 2
      },
      "occlusionTexture": {
        "index": 1
      },
      "pbrMetallicRoughness": {
        "baseColorTexture": {
          "index": 0
        },
        "metallicFactor": 0.0,
        "metallicRoughnessTexture": {
          "index": 1
        },
        "roughnessFactor": 0.6
      }
    }
  ],
  "meshes": [
    {
      "name": "_material_0",
      "primitives": [
        {
          "attributes": {
            "NORMAL": 1,
            "POSITION": 0,
            "TANGENT": 2,
            "TEXCOORD_0": 3,
            "TEXCOORD_1": 4,
            "TEXCOORD_2": 5,
            "TEXCOORD_3": 6,
            "TEXCOORD_4": 7,
            "TEXCOORD_5": 8,
            "TEXCOORD_6": 9,
            "TEXCOORD_7": 10,
            "TEXCOORD_8": 11
          },
          "indices": 12,
          "material": 0,
          "mode": 4
        }
      ]
    }
  ],
  "nodes": [
    {
      "children": [
        1
      ],
      "matrix": [
        1.0,
        0.0,
        0.0,
        0.0,
        0.0,
        2.220446049250313e-16,
        -1.0,
        0.0,
        0.0,
        1.0,
        2.220446049250313e-16,
        0.0,
        0.0,
        0.0,
        0.0,
        1.0
      ],
      "name": "Sketchfab_model"
    },
    {
      "children": [
        2
      ],
      "matrix": [
        0.009999999776482582,
        0.0,
        0.0,
        0.0,
        0.0,
        0.0,
        0.009999999776482582,
        0.0,
        0.0,
        -0.009999999776482582,
        0.0,
        0.0,
        0.0,
        0.0,
        0.0,
        1.0
      ],
      "name": "Aug 4, 12_26 PM (1).fbx"
    },
    {
      "children": [
        3
      ],
      "name": "RootNode"
    },
    {
      "children": [
        4
      ],
      "name": "Object_3"
    },
    {
      "mesh": 0,
      "name": "_material_0"
    }
  ],
  "samplers": [
    {
      "magFilter": 9729,
      "minFilter": 9987,
      "wrapS": 10497,
      "wrapT": 10497
    }
  ],
  "scene": 0,
  "scenes": [
    {
      "name": "Sketchfab_Scene",
      "nodes": [
        0
      ]
    }
  ],
  "textures": [
    {
      "sampler": 0,
      "source": 0
    },
    {
      "sampler": 0,
      "source": 1
    },
    {
      "sampler": 0,
      "source": 2
    }
  ]
}
